<svg width="28" height="28" viewBox="0 0 25 16" fill="none" xmlns="http://www.w3.org/2000/svg">
<path d="M24.1071 0.935547C23.5714 0.935547 23.2143 1.18332 23.2143 1.55498V4.03271H10.625C10.1786 2.2983 8.03571 0.935547 5.35714 0.935547H2.67857C1.16071 0.935547 0 1.74081 0 2.79384V4.65214V7.12987V7.19181C0 7.25375 -8.648e-08 7.31569 0.0892856 7.37764C0.0892856 7.43958 0.178571 7.43958 0.178571 7.50152C0.178571 7.56347 0.267857 7.56347 0.267857 7.56347C0.357143 7.62541 0.446428 7.68735 0.535714 7.68735L10.1786 10.5367L8.125 11.1562C7.5 10.5987 6.51786 10.227 5.35714 10.227C3.39286 10.227 1.78571 11.342 1.78571 12.7048C1.78571 14.0675 3.39286 15.1825 5.35714 15.1825C7.32143 15.1825 8.92857 14.0675 8.92857 12.7048C8.92857 12.5809 8.92857 12.457 8.83928 12.3331L12.5 11.2801L16.1607 12.3331C16.1607 12.457 16.0714 12.5809 16.0714 12.7048C16.0714 14.0675 17.6786 15.1825 19.6429 15.1825C21.6071 15.1825 23.2143 14.0675 23.2143 12.7048C23.2143 11.342 21.6071 10.227 19.6429 10.227C18.4821 10.227 17.5 10.5987 16.875 11.2181L14.8214 10.5987L24.4643 7.7493C24.5536 7.68735 24.6429 7.68735 24.7321 7.62541L24.8214 7.56347C24.8214 7.50152 24.9107 7.50152 24.9107 7.43958C24.9107 7.37764 25 7.31569 25 7.25375V7.19181V4.71408V1.55498C25 1.18332 24.6429 0.935547 24.1071 0.935547ZM5.35714 13.9436C4.375 13.9436 3.57143 13.3861 3.57143 12.7048C3.57143 12.0234 4.375 11.4659 5.35714 11.4659C5.71429 11.4659 6.16071 11.5898 6.42857 11.7137L5 12.1473C4.55357 12.2711 4.375 12.6428 4.55357 12.9525C4.64286 13.2003 5 13.3242 5.35714 13.3242C5.44643 13.3242 5.625 13.3242 5.71429 13.2622L7.14286 12.8286C7.05357 13.4481 6.25 13.9436 5.35714 13.9436ZM20 12.1473L18.5714 11.7137C18.8393 11.5898 19.1964 11.4659 19.6429 11.4659C20.625 11.4659 21.4286 12.0234 21.4286 12.7048C21.4286 13.3861 20.625 13.9436 19.6429 13.9436C18.75 13.9436 17.9464 13.4481 17.8571 12.8286L19.2857 13.2622C19.375 13.3242 19.5536 13.3242 19.6429 13.3242C20 13.3242 20.3571 13.2003 20.4464 12.9525C20.625 12.6428 20.4464 12.2711 20 12.1473ZM1.78571 2.79384C1.78571 2.42218 2.14286 2.17441 2.67857 2.17441H5.35714C7.05357 2.17441 8.39286 2.97967 8.83928 4.03271H1.78571V2.79384ZM12.5 9.91731L5.26786 7.7493H19.8214L12.5 9.91731Z" fill="#FFB700"/>
</svg>
