<svg width="24" height="18" viewBox="0 0 24 18" fill="none" xmlns="http://www.w3.org/2000/svg">
<path d="M22.6479 7.82913C22.6474 7.82872 22.6469 7.82831 22.6463 7.8279L13.4089 0.485596C13.0152 0.172485 12.4917 0 11.9348 0C11.378 0 10.8545 0.172348 10.4606 0.485458L1.22802 7.82405C1.22491 7.82652 1.2218 7.82913 1.21869 7.8316C0.410128 8.47801 0.41151 9.52679 1.22266 10.1716C1.59325 10.4663 2.0827 10.637 2.60602 10.6548C2.62727 10.6565 2.64869 10.6573 2.67029 10.6573H3.03846V16.0608C3.03846 17.13 4.13295 18 5.47848 18H9.09245C9.45872 18 9.75589 17.7639 9.75589 17.4727V13.2363C9.75589 12.7484 10.2552 12.3515 10.869 12.3515H13.0007C13.6145 12.3515 14.1138 12.7484 14.1138 13.2363V17.4727C14.1138 17.7639 14.4108 18 14.7772 18H18.3912C19.7367 18 20.8312 17.13 20.8312 16.0608V10.6573H21.1726C21.7293 10.6573 22.2528 10.4849 22.6469 10.1718C23.4589 9.52597 23.4592 8.4754 22.6479 7.82913Z" fill="#70708C"/>
</svg>
