<svg width="41" height="32" viewBox="0 0 41 32" fill="none" xmlns="http://www.w3.org/2000/svg">
<path d="M13.8389 21.9758C13.1186 21.379 12.2523 21 11.3374 21C10.3932 21 9.51719 21.379 8.80664 22C10.1693 21.7581 11.9019 21.629 13.8389 21.9758Z" fill="#70708C"/>
<path d="M40.2255 29.3952C39.2392 24.0033 35.2446 19.4449 29.7458 16.9638C30.0006 18.4811 30.2554 21.0663 29.6471 23.3455C30.8636 23.6972 31.7595 24.661 31.7595 25.8006C31.7595 27.2462 30.3869 28.3793 28.6608 28.3793C26.9347 28.3793 25.5621 27.2202 25.5621 25.8006C25.5621 24.5633 26.5813 23.5474 27.9621 23.2674C28.7923 20.5845 28.1183 17.1136 27.9293 16.2279C27.7073 16.1498 27.4854 16.0781 27.2553 16C25.4059 17.5173 22.9072 18.455 20.129 18.455C17.4166 18.455 14.9179 17.5433 13.1014 16.0781C12.8138 16.5861 12.2713 17.8234 12.3699 19.6728C15.0823 20.1026 17.1618 22.7334 17.1618 25.8982C17.1618 27.0639 16.8742 28.2295 16.3317 29.2129C16.0358 29.9552 14.7946 30.2548 14.2193 30.2548C13.3562 30.2548 12.6576 29.6752 12.6576 28.9394C12.6576 28.2035 13.3645 27.6239 14.2193 27.6239C14.4741 27.6239 14.8275 27.676 15.2138 27.7998C15.8714 26.2955 15.37 24.2572 15.0577 23.5735C11.9918 22.4599 9.18077 23.2218 8.15335 23.5735C7.86567 24.2572 7.31497 26.1197 7.99718 27.7998C8.38349 27.676 8.72871 27.6239 8.99173 27.6239C9.85477 27.6239 10.5534 28.2035 10.5534 28.9394C10.5534 29.6752 9.84655 30.2548 8.99173 30.2548C8.44925 30.2548 7.23277 29.9748 6.91221 29.291C6.33685 28.2816 6.04918 27.116 6.04918 25.8982C6.04918 22.7595 8.09581 20.1547 10.7425 19.6728C10.6767 18.455 10.874 17.4457 11.0959 16.7098C5.26833 19.1453 1.05177 23.8274 0.0325601 29.3952C-0.222242 30.7627 1.05177 32 2.68743 32H37.546C39.2063 32 40.4803 30.7627 40.2255 29.3952Z" fill="#70708C"/>
<path d="M20.1121 17C24.9786 17 28.9352 13.7126 28.9352 9.65092C28.9352 9.08661 28.8684 8.55512 28.7098 8.01706C28.7098 8.01706 24.5612 7 20.1121 7C15.6714 7 11.5479 8.01706 11.5479 8.01706C11.4143 8.55512 11.3225 9.08661 11.3225 9.65092C11.2891 13.7323 15.2457 17 20.1121 17Z" fill="#70708C"/>
<path d="M28.3344 6C28.9772 4.30479 29.5854 2.59216 30.1935 0.896952C23.5996 -0.298984 16.6496 -0.298984 10.0645 0.896952C10.6726 2.59216 11.3155 4.30479 11.9236 6C17.2838 5.02467 22.9655 5.02467 28.3344 6ZM17.6574 2.09289H19.3775V0.87373H20.8631V2.09289H22.5832V3.13208H20.8631V4.35123H19.3775V3.13208H17.6574V2.09289Z" fill="#70708C"/>
</svg>
