<svg width="28" height="28" viewBox="0 0 28 28" fill="none" xmlns="http://www.w3.org/2000/svg">
<path d="M9.27031 5.66602C9.27031 5.23946 9.62032 4.88946 10.0469 4.88946H17.9547C18.3813 4.88946 18.7313 5.23946 18.7313 5.66602V8.64102H20.8531V5.66602C20.8531 4.06914 19.5516 2.76758 17.9547 2.76758H10.0469C8.45 2.76758 7.14844 4.06914 7.14844 5.66602V8.64102H9.27031V5.66602Z" fill="#605BFF"/>
<path d="M4.03594 15.4992C3.98672 15.4992 3.93203 15.4992 3.88281 15.4937V23.8664C3.88281 24.6211 4.59922 25.2336 5.47969 25.2336H22.5258C23.4062 25.2336 24.1227 24.6211 24.1227 23.8664V15.4883C24.0734 15.4937 24.0242 15.4937 23.9695 15.4937H4.03594V15.4992ZM17.3523 21.8375H15.4766V23.7133H12.5234V21.8375H10.6477V18.8844H12.5234V17.0086H15.4766V18.8844H17.3523V21.8375Z" fill="#605BFF"/>
<path d="M22.1379 11.0254H25.184V10.6262C25.184 9.95352 24.6371 9.41211 23.9699 9.41211H4.03633C3.36367 9.41211 2.82227 9.95898 2.82227 10.6262V13.5137C2.82227 14.1863 3.36914 14.7332 4.03633 14.7332H23.9699C24.6426 14.7332 25.184 14.1863 25.184 13.5137V11.791H22.1379C21.9246 11.791 21.7551 11.6215 21.7551 11.4082C21.7551 11.1949 21.9246 11.0254 22.1379 11.0254ZM21.2137 11.6762C21.1426 11.7473 21.0441 11.7855 20.9457 11.7855C20.8418 11.7855 20.7488 11.7418 20.6723 11.6762C20.6012 11.6051 20.5629 11.5066 20.5629 11.4027C20.5629 11.2988 20.6066 11.2059 20.6723 11.1293C20.7434 11.0582 20.8418 11.0199 20.9457 11.0199C21.0496 11.0199 21.1426 11.0582 21.2137 11.1293C21.2848 11.2004 21.3285 11.2988 21.3285 11.4027C21.3285 11.5066 21.2848 11.6051 21.2137 11.6762Z" fill="#605BFF"/>
</svg>
