<svg width="28" height="28" viewBox="0 0 25 25" fill="none" xmlns="http://www.w3.org/2000/svg">
<path d="M6.28787 10.9368C6.43004 12.0701 6.98108 13.1125 7.8375 13.8682C8.69391 14.6238 9.79676 15.0409 10.9389 15.0409C12.0811 15.0409 13.1839 14.6238 14.0403 13.8682C14.8967 13.1125 15.4478 12.0701 15.59 10.9368C16.0044 10.9417 16.4037 10.7817 16.7001 10.4921C16.9966 10.2025 17.1658 9.80698 17.1707 9.39258C17.1755 8.97818 17.0155 8.57883 16.7259 8.28238C16.4363 7.98594 16.0408 7.81668 15.6264 7.81185C14.5032 7.81533 13.4128 7.43288 12.5379 6.72852C10.6316 8.14518 7.40766 7.81185 6.25141 7.81185C6.04622 7.81424 5.84351 7.85703 5.65485 7.93776C5.4662 8.0185 5.29529 8.1356 5.15189 8.28238C5.00849 8.42917 4.89541 8.60276 4.8191 8.79325C4.74279 8.98373 4.70474 9.18739 4.70714 9.39258C4.70953 9.59777 4.75232 9.80048 4.83305 9.98913C4.91379 10.1778 5.03089 10.3487 5.17767 10.4921C5.47412 10.7817 5.87347 10.9417 6.28787 10.9368ZM12.5014 8.33268C12.6395 8.33268 12.772 8.38756 12.8697 8.48523C12.9674 8.58291 13.0222 8.71538 13.0222 8.85352C13.0222 8.99165 13.0771 9.12413 13.1748 9.2218C13.2725 9.31948 13.4049 9.37435 13.5431 9.37435C13.6812 9.37435 13.8137 9.42922 13.9114 9.5269C14.009 9.62457 14.0639 9.75705 14.0639 9.89518C14.0639 10.0333 14.009 10.1658 13.9114 10.2635C13.8137 10.3611 13.6812 10.416 13.5431 10.416C11.9806 10.416 11.5014 8.33268 12.5014 8.33268ZM12.7879 12.5879C12.8889 12.6693 12.956 12.7855 12.9758 12.9137C12.9957 13.042 12.967 13.173 12.8953 13.2812C12.8236 13.3894 12.7141 13.4669 12.5883 13.4986C12.4624 13.5303 12.3293 13.5138 12.215 13.4525C11.8313 13.2161 11.3895 13.0909 10.9389 13.0909C10.4883 13.0909 10.0465 13.2161 9.66287 13.4525C9.54851 13.5138 9.41537 13.5303 9.28952 13.4986C9.16368 13.4669 9.05419 13.3894 8.98251 13.2812C8.91083 13.173 8.88211 13.042 8.90198 12.9137C8.92185 12.7855 8.98889 12.6693 9.08995 12.5879C9.64158 12.2337 10.2833 12.0454 10.9389 12.0454C11.5945 12.0454 12.2362 12.2337 12.7879 12.5879ZM8.33474 9.37435C8.47288 9.37435 8.60535 9.31948 8.70303 9.2218C8.8007 9.12413 8.85558 8.99165 8.85558 8.85352C8.85558 8.71538 8.91045 8.58291 9.00812 8.48523C9.1058 8.38756 9.23828 8.33268 9.37641 8.33268C10.366 8.33268 9.89724 10.416 8.33474 10.416C8.19661 10.416 8.06413 10.3611 7.96646 10.2635C7.86878 10.1658 7.81391 10.0333 7.81391 9.89518C7.81391 9.75705 7.86878 9.62457 7.96646 9.5269C8.06413 9.42922 8.19661 9.37435 8.33474 9.37435Z" fill="#FF55BF"/>
<path d="M13.084 18.4108C12.6638 18.8147 12.1391 19.0931 11.569 19.2145C10.9989 19.3358 10.4063 19.2953 9.85804 19.0976C9.30978 18.8999 8.82774 18.5527 8.46639 18.0954C8.10503 17.6381 7.87877 17.0889 7.81315 16.5098L4.37565 17.7389C3.52128 18.0524 2.76395 18.5842 2.17911 19.2815C1.59426 19.9787 1.20232 20.817 1.04232 21.7129L0.521484 24.4785H15.8236C14.8416 23.8281 14.0633 22.9133 13.5786 21.8398C13.0939 20.7662 12.9225 19.5776 13.084 18.4108Z" fill="#FF55BF"/>
<path d="M8.85426 15.75C8.80881 16.0874 8.84 16.4307 8.9455 16.7545C9.051 17.0782 9.2281 17.3739 9.46363 17.6198C9.755 17.9115 10.1264 18.1102 10.5307 18.1907C10.935 18.2712 11.3542 18.2299 11.7351 18.0721C12.116 17.9143 12.4414 17.647 12.6703 17.3041C12.8992 16.9612 13.0213 16.5581 13.0209 16.1458V15.75C11.6818 16.276 10.1933 16.276 8.85426 15.75Z" fill="#FF55BF"/>
<path d="M12.5013 5.20787C12.8652 5.69302 13.337 6.08678 13.8794 6.35798C14.4218 6.62918 15.0199 6.77037 15.6263 6.77037H16.1471C16.1471 5.17662 16.2044 3.64537 14.6211 2.04642C13.8927 1.31824 12.9648 0.822375 11.9546 0.621503C10.9444 0.42063 9.89737 0.52377 8.94581 0.917885C7.99425 1.312 7.1809 1.97939 6.60859 2.8357C6.03627 3.692 5.73069 4.69876 5.73047 5.72871V6.77037C7.32943 6.77037 11.5221 7.16621 12.5013 5.20787Z" fill="#FF55BF"/>
<path d="M19.2708 14.0625C18.2407 14.0625 17.2337 14.368 16.3772 14.9403C15.5207 15.5126 14.8532 16.326 14.459 17.2777C14.0648 18.2294 13.9616 19.2766 14.1626 20.2869C14.3635 21.2972 14.8596 22.2253 15.588 22.9537C16.3164 23.6821 17.2444 24.1781 18.2547 24.3791C19.2651 24.5801 20.3123 24.4769 21.264 24.0827C22.2157 23.6885 23.0291 23.0209 23.6014 22.1644C24.1737 21.3079 24.4792 20.3009 24.4792 19.2708C24.4792 17.8895 23.9304 16.5647 22.9537 15.588C21.9769 14.6112 20.6522 14.0625 19.2708 14.0625ZM21.875 20.3125H20.3125V21.875H18.2292V20.3125H16.6667V18.2292H18.2292V16.6667H20.3125V18.2292H21.875V20.3125Z" fill="#FF55BF"/>
</svg>
