<svg width="28" height="28" viewBox="0 0 25 18" fill="none" xmlns="http://www.w3.org/2000/svg">
<g clip-path="url(#clip0_411_126)">
<path d="M6.5073 7.21811L9.61456 5.06253L7.5428 3.62521L6.50711 4.34374L1.03569 0.547852L0 1.26638L5.47142 5.06226L4.43573 5.78079L6.5073 7.21811Z" fill="#FF6533"/>
<path d="M23.9642 13.7905L23.0798 14.4041L21.008 12.9668L17.9004 15.1225L19.9723 16.56L19.0883 17.1733L20.124 17.8918L24.9999 14.5091L23.9642 13.7905Z" fill="#FF6533"/>
<path d="M21.7893 9.56673L19.984 10.8191L11.687 5.0625L6.50781 8.65567L8.57957 10.0929L11.1692 8.2964L12.2047 9.0148L9.61526 10.8114L10.651 11.5299L13.2404 9.73332L14.2761 10.4519L11.6866 12.2484L12.7227 12.9672L15.3118 11.1709L16.3474 11.8894L13.7584 13.6858L14.8052 14.412L13.0002 15.6643L14.0357 16.3827L22.8248 10.2851L21.7893 9.56673Z" fill="#FF6533"/>
</g>
<defs>
<clipPath id="clip0_411_126">
<rect width="25" height="17.3442" fill="white" transform="translate(0 0.547852)"/>
</clipPath>
</defs>
</svg>
